<svg id="Calque_1" xmlns="http://www.w3.org/2000/svg" viewBox="0 0 168.075 28.433"><style>.st0{fill:#e5007e}.st1{fill:#2d3a8b}.st2{fill:#ea5931}</style><path class="st0" d="M18.069 3.413l-1.014 5.672h1.24c.789 0 1.127.564 1.127 1.878v.376c0 1.315-.338 1.879-1.127 1.879h-1.991l-.789 4.132h1.578c.789 0 1.128.564 1.128 1.879v.375c0 1.315-.339 1.879-1.128 1.879h-2.329l-1.089 5.785c-.151.788-.825 1.165-2.065 1.165h-.49c-1.201 0-1.728-.226-1.728-.864 0-.225.151-.789 1.129-6.086H6.987l-1.089 5.785c-.151.788-.827 1.165-2.067 1.165h-.488c-1.204 0-1.727-.226-1.727-.864 0-.225.15-.789 1.125-6.086H1.127C.338 21.483 0 20.919 0 19.604v-.375c0-1.315.338-1.879 1.127-1.879h2.366l.789-4.132H2.48c-.789 0-1.128-.564-1.128-1.879v-.376c0-1.314.339-1.878 1.128-1.878h2.555l.975-5.334c.15-.789.865-1.165 2.104-1.165h.49c1.164 0 1.69.3 1.69.827L9.28 9.085h3.53l.977-5.335c.151-.789.864-1.165 2.104-1.165h.488c1.165.001 1.69.301 1.69.828zm-9.542 9.805l-.788 4.132h3.53l.789-4.132H8.527zM40.154 8.71c0 2.555-1.803 4.771-4.056 5.711l.036.15c3.006.601 5.073 3.269 5.073 6.161 0 4.846-3.044 7.627-9.394 7.627H23.85c-1.053 0-1.504-.451-1.504-1.503V3.564c0-1.052.451-1.503 1.504-1.503h7.438c6.35 0 8.866 2.705 8.866 6.649zM28.132 6.944v5.597h2.592c2.254 0 3.493-1.24 3.493-2.817 0-1.841-1.125-2.78-3.418-2.78h-2.667zm0 10.519v5.974h3.681c2.181 0 3.457-1.09 3.457-3.043 0-1.955-1.465-2.931-4.056-2.931h-3.082zM71.104 3.187V27.23c0 .789-.677 1.203-2.254 1.203h-1.089c-1.579 0-2.254-.414-2.254-1.203V11.678l-.15-.037-5.447 9.73c-.34.45-.79.713-1.504.713h-1.089c-.714 0-1.165-.263-1.502-.713l-5.447-9.73-.151.037V27.23c0 .789-.677 1.203-2.254 1.203h-1.09c-1.578 0-2.254-.414-2.254-1.203V3.187c0-.788.677-1.202 2.254-1.202h1.991c1.089 0 1.953.263 2.368 1.014l6.311 11.234.3.525.338-.639 6.349-11.12c.413-.751 1.279-1.014 2.368-1.014h1.953c1.577 0 2.253.414 2.253 1.202z"/><path class="st1" d="M141.728 14.976c-.793-1.943-2.252-3.303-4.366-4.087l-4.925 5.718c.081.007.164.014.24.022.498.053.866.131 1.101.236.892.393 1.181 1.049.866 1.967-.315.919-.958 1.417-1.928 1.495-.908.089-1.628-.428-2.161-1.536l-4.122 4.786-1.12 1.3c.069.073.133.148.203.219.224.227.459.448.708.661 1.862 1.6 3.96 2.4 6.296 2.4 2.544-.158 4.708-1.009 6.493-2.558 1.784-1.548 2.846-3.528 3.188-5.942.235-1.651.078-3.211-.473-4.681zM140.604.102l-4.728 7.83h4.986V.102h-.258z"/><path class="st2" d="M134.518 10.182a14.295 14.295 0 0 0-4.242.072c.026-.262.079-1.036.157-2.322h5.443l4.726-7.83H123.94l-.38 5.908-.563 8.73 1.338 1.81c.498 0 1.2-.006 2.105-.02 1.416-.027 2.832-.027 4.248-.002l.159.002c.611.012 1.138.037 1.589.077l4.925-5.718c-.055-.02-.105-.045-.16-.064a13.447 13.447 0 0 0-2.683-.643zm-4.241 7.942l-.637.141-6.997 1.551a10.63 10.63 0 0 0 2.671 5.061l1.12-1.3 4.122-4.786a6.177 6.177 0 0 1-.279-.667z"/><path d="M111.573 9.014c-.604-.734-1.456-1.127-2.558-1.181-.997.026-1.81.433-2.44 1.22-.944 1.233-1.39 2.951-1.337 5.155.033 1.404.243 2.594.63 3.572.228.575.515 1.077.865 1.504.63.761 1.482 1.155 2.558 1.18.997-.026 1.81-.433 2.44-1.22.019-.025.035-.054.054-.079.905-1.227 1.335-2.917 1.283-5.075-.052-2.229-.551-3.921-1.495-5.076z" fill="none"/><path class="st2" d="M109.291 28.296h.118c3.567-.053 6.414-1.469 8.539-4.25a13.345 13.345 0 0 0 1.746-3.028l-7.909-1.852c-.019.026-.035.054-.054.079-.63.787-1.443 1.194-2.44 1.22-1.076-.026-1.928-.419-2.558-1.18a5.579 5.579 0 0 1-.865-1.504l-8.432-1.975c.274 3.399 1.353 6.225 3.237 8.477 2.177 2.676 5.05 4.013 8.618 4.013z"/><path class="st1" d="M117.633 4.017c-2.178-2.649-5.051-4-8.618-4.053h-.079c-1.55.034-2.956.335-4.233.872l13.3 3.669c-.123-.163-.238-.331-.37-.488z"/><path class="st0" d="M105.238 14.209c-.053-2.203.393-3.922 1.337-5.155.63-.787 1.443-1.194 2.44-1.22 1.102.053 1.954.447 2.558 1.181.944 1.155 1.443 2.847 1.495 5.076.052 2.158-.379 3.848-1.283 5.075l7.909 1.852c.858-2.049 1.278-4.394 1.244-7.046-.049-3.818-1.036-6.968-2.935-9.468l-13.3-3.669c-1.683.708-3.137 1.836-4.346 3.417-2.046 2.65-3.043 6.008-2.991 10.074.006.505.029.998.068 1.479l8.432 1.975c-.385-.977-.595-2.167-.628-3.571zm-25.639 4.969a162.727 162.727 0 0 1-3.875 2.833v6.139h19.085v-2.027l-12.619-8.94c-.794.632-1.655 1.296-2.591 1.995z"/><path class="st1" d="M95.123 7.569c-.577-2.072-1.653-3.79-3.227-5.155C90.322 1.05 88.512.289 86.466.131c-2.44-.158-4.689.518-6.749 2.026-2.06 1.509-3.496 3.391-4.309 5.647.734.263 1.836.663 3.306 1.2 1.469.538 2.571.951 3.306 1.239.393-1.18 1.127-1.908 2.203-2.184 1.076-.275 1.993-.059 2.754.65.761.708.97 1.666.63 2.873-.157.525-.695 1.259-1.613 2.204a35.273 35.273 0 0 1-2.912 2.676c-.286.235-.585.476-.893.72l12.619 8.94v-5.568H87.37c6.322-4.117 8.907-8.446 7.753-12.985z"/><path class="st2" d="M156.423 28.27h.118c3.566-.053 6.411-1.468 8.535-4.248 1.237-1.602 2.084-3.469 2.553-5.589l-7.582-2.091c-.201 1.15-.596 2.112-1.186 2.882-.63.787-1.443 1.193-2.439 1.219-1.075-.026-1.927-.419-2.556-1.18-.939-1.147-1.436-2.828-1.493-5.038l-7.773-2.144a21.209 21.209 0 0 0-.096 2.227c.052 4.064 1.154 7.381 3.304 9.951 2.178 2.674 5.049 4.011 8.615 4.011z"/><path class="st0" d="M152.372 14.19c-.054-2.202.393-3.92 1.337-5.152.63-.787 1.442-1.193 2.438-1.22 1.101.053 1.953.446 2.556 1.18.944 1.154 1.442 2.845 1.495 5.074.019.825-.031 1.583-.151 2.272l7.582 2.092c.307-1.385.456-2.875.436-4.481-.053-4.064-1.154-7.38-3.304-9.951-2.176-2.648-5.048-3.998-8.613-4.051h-.078c-3.592.078-6.45 1.508-8.574 4.287-1.658 2.147-2.614 4.767-2.894 7.843l7.773 2.144c-.001-.013-.003-.024-.003-.037z"/></svg>