<svg id="Calque_1" data-name="Calque 1" xmlns="http://www.w3.org/2000/svg" viewBox="0 0 302.09 123.76"><defs><style>.cls-1{fill:#ed8c00}.cls-1,.cls-10{opacity:.7}.cls-2,.cls-4{opacity:.6}.cls-3{fill:#0069ae}.cls-4{fill:#662480}.cls-5{opacity:.65}.cls-7{fill:#dd0613}.cls-9{fill:#e0007e}.cls-12{fill:#09d}.cls-13{fill:gold;opacity:.77}.cls-14{fill:#a11680}.cls-15{fill:#df1746}.cls-16{fill:#1e86a0}.cls-18{fill:#8ebb1f}.cls-20{fill:#1d1d1b}</style></defs><path class="cls-1" transform="rotate(-48.31 94.443 69.017)" d="M66.83 67.25h55.25v3.55H66.83z"/><g class="cls-2"><path class="cls-3" transform="rotate(-53.88 86.76 75.017)" d="M68.64 73.24h36.23v3.55H68.64z"/></g><path class="cls-4" transform="rotate(-31.51 69.213 78.438)" d="M67.42 65.27h3.55v26.32h-3.55z"/><path class="cls-4" transform="rotate(-36.41 91.852 78.021)" d="M72.25 76.24h39.19v3.55H72.25z"/><path transform="rotate(-33.33 81.648 98.113)" fill="#006230" d="M79.87 87.98h3.55v20.25h-3.55z"/><g class="cls-2"><path class="cls-7" transform="rotate(-79.38 61.583 86.933)" d="M59.8 72.19h3.55v29.49H59.8z"/></g><path transform="rotate(-20.16 68.957 70.26)" fill="#009040" opacity=".6" d="M67.19 49.62h3.55v41.3h-3.55z"/><g class="cls-5"><path class="cls-9" transform="rotate(-77.8 85.512 46.051)" d="M40.9 44.28h89.22v3.55H40.9z"/></g><path transform="rotate(-.73 76.257 104.092)" fill="#ed8c00" d="M74.49 89.65h3.55v29.31h-3.55z"/><g class="cls-2"><path class="cls-12" transform="rotate(-41.68 59.927 71.506)" d="M58.15 47.22h3.55v48.57h-3.55z"/></g><path class="cls-13" transform="rotate(-8.63 71.926 62.474)" d="M70.17 34.9h3.55v55.06h-3.55z"/><g class="cls-2"><path class="cls-12" transform="rotate(-61.19 93.3 58.327)" d="M57.55 56.55h71.5v3.55h-71.5z"/></g><path class="cls-13" transform="rotate(-12.28 92.099 86.169)" d="M75.7 84.39h32.76v3.55H75.7z"/><g class="cls-2"><path class="cls-14" transform="rotate(-71.6 85.19 92.678)" d="M83.41 83.08h3.55v19.21h-3.55z"/></g><g class="cls-2"><path class="cls-7" transform="rotate(-56.02 88.64 98.113)" d="M86.86 82.97h3.55v30.28h-3.55z"/></g><g class="cls-2"><path class="cls-15" d="M76.08 89.65l-.03-.01"/><path class="cls-14" d="M75.2 91.19l-.03-.01 1.76-3.08-1.73 3.09z"/></g><g class="cls-5"><path class="cls-16" transform="rotate(-61.54 49.546 75.272)" d="M47.77 45.1h3.55v60.33h-3.55z"/></g><g class="cls-2"><path class="cls-15" d="M76.08 89.65l-.02-.01"/><path class="cls-14" d="M75.2 91.19l-.02-.01 1.76-3.08-1.74 3.09z"/></g><path class="cls-1" transform="rotate(-49.38 51.047 68.182)" d="M49.27 35.21h3.55v65.95h-3.55z"/><path transform="rotate(-88.18 39.261 88.479)" fill="#a11680" opacity=".6" d="M37.49 51.65h3.55v73.66h-3.55z"/><g class="cls-2"><path class="cls-14" d="M76.08 91.42l-.01-3.54h.01v3.54z"/></g><g class="cls-2"><path class="cls-3" transform="rotate(-40.91 67.391 97.18)" d="M55.9 95.4h22.98v3.55H55.9z"/></g><path class="cls-13" transform="rotate(-65.8 68.958 105.48)" d="M51.61 103.71h34.71v3.55H51.61z"/><g class="cls-2"><path class="cls-9" transform="rotate(-43.32 86.66 79.66)" d="M72.11 77.88h29.13v3.55H72.11z"/></g><g class="cls-2"><path class="cls-12" transform="rotate(-73.76 73.72 97.733)" d="M65.3 95.96h16.84v3.55H65.3z"/></g><g class="cls-2"><path class="cls-14" transform="rotate(-55.6 62.315 80.23)" d="M60.54 63.59h3.55v33.29h-3.55z"/></g><g class="cls-5"><path class="cls-16" transform="rotate(-24.31 84.48 85.846)" d="M75.26 84.07h18.47v3.55H75.26z"/></g><g class="cls-5"><path class="cls-18" transform="rotate(-68.38 55.498 81.493)" d="M53.72 59.36h3.55v44.26h-3.55z"/></g><g class="cls-10"><path class="cls-18" transform="rotate(-71.93 85.113 61.98)" d="M56 60.21h58.21v3.55H56z"/></g><path transform="rotate(-25.68 72.645 82.51)" opacity=".6" fill="#ed8c00" d="M70.87 74.6h3.55v15.83h-3.55z"/><path class="cls-20" d="M97.39 2.45A2.46 2.46 0 1 1 94.94 0a2.45 2.45 0 0 1 2.45 2.45zM113 27a2.46 2.46 0 1 1-2.46-2.45A2.46 2.46 0 0 1 113 27z"/><circle class="cls-20" cx="112.82" cy="48.4" r="2.45"/><path class="cls-20" d="M99.89 60.39a2.46 2.46 0 1 1-2.46-2.46 2.46 2.46 0 0 1 2.46 2.46zM110.07 66.39a2.45 2.45 0 1 1-2.45-2.45 2.46 2.46 0 0 1 2.45 2.45zM110.53 82.68a2.45 2.45 0 1 1-2.45-2.45 2.45 2.45 0 0 1 2.45 2.45zM96.75 95.71a2.45 2.45 0 1 1-2.45-2.44 2.45 2.45 0 0 1 2.45 2.44zM103.63 106.57a2.45 2.45 0 1 1-2.44-2.45 2.45 2.45 0 0 1 2.44 2.45zM89.66 106.57a2.46 2.46 0 1 1-2.45-2.45 2.45 2.45 0 0 1 2.45 2.45zM78.9 119a2.45 2.45 0 1 1-2.46-2.45A2.46 2.46 0 0 1 78.9 119zM64.3 121.31a2.45 2.45 0 1 1-2.45-2.45 2.45 2.45 0 0 1 2.45 2.45zM61.16 104.7a2.45 2.45 0 1 1-2.45-2.44 2.45 2.45 0 0 1 2.45 2.44zM4.9 87.31a2.45 2.45 0 1 1-2.45-2.46 2.44 2.44 0 0 1 2.45 2.46zM49.54 84.22a2.46 2.46 0 1 1-2.45-2.45 2.45 2.45 0 0 1 2.45 2.45zM64.77 67.21a2.45 2.45 0 1 1-2.45-2.45 2.45 2.45 0 0 1 2.45 2.45zM71.67 75.38a2.46 2.46 0 1 1-2.45-2.45 2.45 2.45 0 0 1 2.45 2.45zM46.24 53.4a2.46 2.46 0 1 1-2.45-2.46 2.46 2.46 0 0 1 2.45 2.46zM25.47 60.89A2.45 2.45 0 1 1 23 58.43a2.46 2.46 0 0 1 2.47 2.46zM28.47 46.71A2.45 2.45 0 1 1 26 44.26a2.45 2.45 0 0 1 2.47 2.45zM64.3 50.89a2.46 2.46 0 1 1-2.46-2.46 2.46 2.46 0 0 1 2.46 2.46zM70.26 35.21a2.45 2.45 0 1 1-2.45-2.45 2.44 2.44 0 0 1 2.45 2.45zM99.72 69.67a2.45 2.45 0 1 1-2.45-2.46 2.45 2.45 0 0 1 2.45 2.46zM73.82 105.83a2.46 2.46 0 1 1-2.46-2.46 2.46 2.46 0 0 1 2.46 2.46zM51 70.83a2.46 2.46 0 1 1-2.45-2.45A2.45 2.45 0 0 1 51 70.83zM95.36 82.05a2.45 2.45 0 1 1-2.45-2.45 2.45 2.45 0 0 1 2.45 2.45zM37.37 73.34a2.45 2.45 0 1 1-2.45-2.46 2.45 2.45 0 0 1 2.45 2.46zM96.58 34.31a2.45 2.45 0 1 1-2.45-2.45 2.45 2.45 0 0 1 2.45 2.45zM78.54 89.68a2.45 2.45 0 1 1-2.45-2.45 2.46 2.46 0 0 1 2.45 2.45zM139.33 57.17a7.38 7.38 0 0 1-3.85 3.83 7.19 7.19 0 0 1-2.86.57h-5.57a1.7 1.7 0 0 1-1.27-.54 1.72 1.72 0 0 1-.52-1.25V37.59a1.76 1.76 0 0 1 .52-1.26 1.7 1.7 0 0 1 1.27-.54h5.57a7.61 7.61 0 0 1 2.82.52 6.46 6.46 0 0 1 2.2 1.46 6.82 6.82 0 0 1 1.44 2.23 7.14 7.14 0 0 1 .53 2.76 7.26 7.26 0 0 1-.68 3.12 6.08 6.08 0 0 1-2 2.38 7.31 7.31 0 0 1 2.13 2.52 6.78 6.78 0 0 1 .83 3.23v.34a7.25 7.25 0 0 1-.56 2.82zM136 42.74a3.17 3.17 0 0 0-3.4-3.4h-3.78v7.21h3.78a3.15 3.15 0 0 0 2.43-1.06 4 4 0 0 0 .97-2.75zm.3 11.25a3.78 3.78 0 0 0-.3-1.49 4.08 4.08 0 0 0-.81-1.25 3.39 3.39 0 0 0-1.19-.85 3.44 3.44 0 0 0-1.42-.29h-3.78v8h3.78a3.56 3.56 0 0 0 1.46-.29 3.83 3.83 0 0 0 1.17-.81 3.49 3.49 0 0 0 .79-1.19 3.93 3.93 0 0 0 .28-1.44zM160.4 57.5a7 7 0 0 1-3.85 3.76 7.47 7.47 0 0 1-2.86.54h-.37a7.37 7.37 0 0 1-2.82-.54 7.13 7.13 0 0 1-2.32-1.5 7 7 0 0 1-2.15-5.1V42.71a6.92 6.92 0 0 1 .58-2.83 7.45 7.45 0 0 1 1.57-2.26 7 7 0 0 1 2.34-1.51 7.55 7.55 0 0 1 2.84-.54h.33a7.47 7.47 0 0 1 2.86.54 6.81 6.81 0 0 1 2.3 1.51 7.4 7.4 0 0 1 1.55 2.26 6.76 6.76 0 0 1 .58 2.83v11.95a6.84 6.84 0 0 1-.58 2.84zm-3-14.8a3.59 3.59 0 0 0-.28-1.44 3.41 3.41 0 0 0-.78-1.14 3.52 3.52 0 0 0-1.18-.74 4.07 4.07 0 0 0-1.46-.26h-.37a3.67 3.67 0 0 0-2.63 1 3.41 3.41 0 0 0-1.07 2.58v11.93a3.69 3.69 0 0 0 .28 1.46 3.2 3.2 0 0 0 .79 1.14 3.82 3.82 0 0 0 1.17.74 3.72 3.72 0 0 0 1.46.28h.37a3.69 3.69 0 0 0 1.46-.28 3.87 3.87 0 0 0 1.18-.74 3.05 3.05 0 0 0 .78-1.14 3.69 3.69 0 0 0 .28-1.46zM181.2 47.71a6.88 6.88 0 0 1-3.44 2.62l4.24 8.93a1.74 1.74 0 0 1-.34 2 1.9 1.9 0 0 1-1.38.5 1.78 1.78 0 0 1-.86-.22 1.66 1.66 0 0 1-.67-.75L174 50.66h-3v9.39a1.58 1.58 0 0 1-.54 1.32 1.89 1.89 0 0 1-1.21.43 2 2 0 0 1-1.28-.43 1.56 1.56 0 0 1-.56-1.32V37.59a1.86 1.86 0 0 1 1.8-1.8h6.09a7.2 7.2 0 0 1 2.86.58 7.51 7.51 0 0 1 2.3 1.55 7.7 7.7 0 0 1 1.55 2.3 7.17 7.17 0 0 1 .58 2.86v.34a7.29 7.29 0 0 1-1.39 4.29zm-2.28-4.63a3.9 3.9 0 0 0-1-2.67 3.21 3.21 0 0 0-1.12-.79 3.73 3.73 0 0 0-1.44-.28h-4.41v7.78h4.45a3.35 3.35 0 0 0 2.56-1.07 3.72 3.72 0 0 0 1-2.63zM202.41 57.32a7.45 7.45 0 0 1-1.55 2.3 7 7 0 0 1-2.3 1.47 7.73 7.73 0 0 1-2.86.52h-5.87a1.85 1.85 0 0 1-1.83-1.79V37.59a1.74 1.74 0 0 1 .54-1.26 1.72 1.72 0 0 1 1.25-.54h5.87a7.94 7.94 0 0 1 2.86.52 7 7 0 0 1 2.3 1.48 7.33 7.33 0 0 1 1.55 2.3 7.59 7.59 0 0 1 .57 3v11.24a7.62 7.62 0 0 1-.53 2.99zm-3-14.24a3.57 3.57 0 0 0-.3-1.46 3.78 3.78 0 0 0-2-2 3.45 3.45 0 0 0-1.42-.3h-4.08v18.74h4.08a3.44 3.44 0 0 0 1.42-.29 3.88 3.88 0 0 0 1.19-.77 3.83 3.83 0 0 0 .8-1.19 3.57 3.57 0 0 0 .3-1.44zM223.54 59.86a1.86 1.86 0 0 1-.45 1.19 1.6 1.6 0 0 1-1.34.56h-11.37a1.85 1.85 0 0 1-1.79-1.79V37.59a1.74 1.74 0 0 1 .54-1.26 1.72 1.72 0 0 1 1.25-.54h11.37a1.63 1.63 0 0 1 1.34.56 2 2 0 0 1 .45 1.24 1.86 1.86 0 0 1-.45 1.19 1.6 1.6 0 0 1-1.34.56h-9.57v7.21h6.5a1.65 1.65 0 0 1 1.35.55 1.83 1.83 0 0 1 .44 1.21 1.9 1.9 0 0 1-.44 1.23 1.63 1.63 0 0 1-1.35.57h-6.5v8h9.57a1.63 1.63 0 0 1 1.34.56 2 2 0 0 1 .45 1.19zM245.77 60.12a1.55 1.55 0 0 1-.5 1.21 1.85 1.85 0 0 1-1.33.47 1.91 1.91 0 0 1-1-.3 1.74 1.74 0 0 1-.71-1l-1.53-4.93h-8.3l-1.5 4.93a1.51 1.51 0 0 1-.71 1 2.1 2.1 0 0 1-1.05.3 1.83 1.83 0 0 1-1.32-.47 1.52 1.52 0 0 1-.51-1.17 3.1 3.1 0 0 1 .08-.6l7.1-22.56a1.82 1.82 0 0 1 .82-1.07 2.43 2.43 0 0 1 2.48 0 1.8 1.8 0 0 1 .81 1.07l7.1 22.57c0 .12 0 .24.05.34a1 1 0 0 1 .02.21zm-9.23-18l-3 9.91h6zM263.58 57.37a7.61 7.61 0 0 1-1.58 2.32 7 7 0 0 1-2.3 1.55 7.33 7.33 0 0 1-2.86.56h-.37a7.2 7.2 0 0 1-2.82-.56 7.1 7.1 0 0 1-2.32-1.55 7.49 7.49 0 0 1-1.57-2.32 6.88 6.88 0 0 1-.58-2.82V37.36a1.6 1.6 0 0 1 .56-1.34 2 2 0 0 1 1.24-.45 1.93 1.93 0 0 1 1.23.45 1.6 1.6 0 0 1 .56 1.34v17.19a3.45 3.45 0 0 0 .3 1.42 4 4 0 0 0 .8 1.18 3.85 3.85 0 0 0 1.18.8 3.53 3.53 0 0 0 1.46.3h.33a3.45 3.45 0 0 0 1.42-.3 3.78 3.78 0 0 0 2-2 3.45 3.45 0 0 0 .3-1.42V37.36a1.6 1.6 0 0 1 .56-1.34 2 2 0 0 1 1.24-.45 1.93 1.93 0 0 1 1.23.45 1.6 1.6 0 0 1 .56 1.34v17.19a6.88 6.88 0 0 1-.57 2.82zM285 60.08a1.63 1.63 0 0 1-.52 1.22 1.89 1.89 0 0 1-1.35.5 2 2 0 0 1-.86-.2 1.79 1.79 0 0 1-.71-.77l-4.22-8.48-4.22 8.48a1.69 1.69 0 0 1-.69.75 2 2 0 0 1-2.23-.28 1.63 1.63 0 0 1-.52-1.22 2.07 2.07 0 0 1 .22-.86l5.42-10.91-5-10.13a2 2 0 0 1-.22-.86 1.72 1.72 0 0 1 .52-1.23 1.82 1.82 0 0 1 1.35-.52 1.72 1.72 0 0 1 1.57 1l3.81 7.66 3.81-7.66a1.85 1.85 0 0 1 .71-.79 1.78 1.78 0 0 1 .86-.22 1.82 1.82 0 0 1 1.35.52 1.68 1.68 0 0 1 .52 1.23 1.89 1.89 0 0 1-.22.86l-5 10.13 5.42 10.91a1.93 1.93 0 0 1 .2.87zM143.83 97.62a2 2 0 0 1-2.47 0 1.56 1.56 0 0 1-.56-1.32V80.45l-4 9.34a1.75 1.75 0 0 1-.79.84 2.3 2.3 0 0 1-1.12.28 2.17 2.17 0 0 1-1.07-.28 1.74 1.74 0 0 1-.76-.84l-4.19-9.34V96.3a1.54 1.54 0 0 1-.56 1.32 2 2 0 0 1-2.46 0 1.54 1.54 0 0 1-.56-1.32V73.61a1.85 1.85 0 0 1 1.79-1.79h.45a1.79 1.79 0 0 1 1.83 1l5.53 12.34 5.46-12.34A1.61 1.61 0 0 1 141 72a2.44 2.44 0 0 1 1.16-.22h.45a1.85 1.85 0 0 1 1.79 1.79V96.3a1.56 1.56 0 0 1-.57 1.32zM165.39 96.11a1.86 1.86 0 0 1-.45 1.19 1.59 1.59 0 0 1-1.34.56h-11.36a1.74 1.74 0 0 1-1.26-.54 1.71 1.71 0 0 1-.54-1.25V73.84a1.85 1.85 0 0 1 1.8-1.8h11.36a1.62 1.62 0 0 1 1.34.56 2 2 0 0 1 .45 1.24 1.86 1.86 0 0 1-.45 1.19 1.59 1.59 0 0 1-1.34.56H154v7.21h6.5a1.63 1.63 0 0 1 1.35.55 1.84 1.84 0 0 1 .45 1.21 1.91 1.91 0 0 1-.45 1.23 1.62 1.62 0 0 1-1.35.57H154v8h9.57a1.62 1.62 0 0 1 1.34.56 2 2 0 0 1 .48 1.19zm-3.1-29.9a1.67 1.67 0 0 1-.24.86 1.76 1.76 0 0 1-.77.67l-6 2.84a1.74 1.74 0 0 1-.82.19 1.56 1.56 0 0 1-1.23-.56 1.91 1.91 0 0 1-.49-1.27 1.72 1.72 0 0 1 .26-.88 2 2 0 0 1 .79-.69l6-2.84a1.87 1.87 0 0 1 .82-.19 1.54 1.54 0 0 1 1.23.58 2 2 0 0 1 .45 1.29zM183 73.84a1.86 1.86 0 0 1-.45 1.19 1.58 1.58 0 0 1-1.34.56h-3.55V96.3a1.56 1.56 0 0 1-.56 1.32 2 2 0 0 1-1.24.43 2 2 0 0 1-1.23-.43 1.56 1.56 0 0 1-.56-1.32V75.59h-3.55a1.61 1.61 0 0 1-1.35-.56 1.91 1.91 0 0 1-.44-1.19 2 2 0 0 1 .44-1.24 1.64 1.64 0 0 1 1.35-.56h10.68a1.6 1.6 0 0 1 1.34.56 2 2 0 0 1 .46 1.24zM201.27 84a6.88 6.88 0 0 1-3.44 2.62l4.26 8.93a1.8 1.8 0 0 1 .19.79 1.69 1.69 0 0 1-.53 1.25 1.93 1.93 0 0 1-1.38.5 1.75 1.75 0 0 1-.86-.22 1.66 1.66 0 0 1-.67-.75L194 86.91h-3v9.39a1.58 1.58 0 0 1-.54 1.32 1.9 1.9 0 0 1-1.22.43 2 2 0 0 1-1.27-.43 1.56 1.56 0 0 1-.56-1.32V73.84a1.85 1.85 0 0 1 1.8-1.8h6.09a7.2 7.2 0 0 1 2.86.58 7.51 7.51 0 0 1 2.3 1.55 7.7 7.7 0 0 1 1.55 2.3 7.17 7.17 0 0 1 .58 2.86v.34a7.29 7.29 0 0 1-1.32 4.33zM199 79.33a4.06 4.06 0 0 0-.28-1.48 3.89 3.89 0 0 0-.75-1.19 3.3 3.3 0 0 0-1.12-.79 3.77 3.77 0 0 0-1.44-.28H191v7.78h4.45A3.35 3.35 0 0 0 198 82.3a3.72 3.72 0 0 0 1-2.63zM222 93.75a7.27 7.27 0 0 1-1.56 2.25 7 7 0 0 1-2.3 1.5 7.54 7.54 0 0 1-2.86.54h-.37a7.46 7.46 0 0 1-2.83-.54 7.2 7.2 0 0 1-2.31-1.5 7 7 0 0 1-2.15-5.1V79a6.76 6.76 0 0 1 .58-2.83 7.28 7.28 0 0 1 1.57-2.26 7 7 0 0 1 2.33-1.51 7.59 7.59 0 0 1 2.84-.54h.34a7.54 7.54 0 0 1 2.86.54 6.91 6.91 0 0 1 2.3 1.51 7.76 7.76 0 0 1 1.56 2.22 6.92 6.92 0 0 1 .58 2.83v12a7 7 0 0 1-.58 2.79zM219 79a3.47 3.47 0 0 0-1.07-2.58 3.38 3.38 0 0 0-1.17-.74 4.11 4.11 0 0 0-1.46-.26h-.37a3.69 3.69 0 0 0-2.64 1 3.4 3.4 0 0 0-1.08 2.58v11.88a3.69 3.69 0 0 0 .28 1.46 3.17 3.17 0 0 0 .78 1.14 3.87 3.87 0 0 0 1.18.74 3.69 3.69 0 0 0 1.46.28h.37a3.86 3.86 0 0 0 2.63-1 3.2 3.2 0 0 0 .79-1.14 3.69 3.69 0 0 0 .28-1.46zM243.05 79.29a7.71 7.71 0 0 1-.53 2.84 6.86 6.86 0 0 1-1.47 2.32 7.44 7.44 0 0 1-2.23 1.55 6.59 6.59 0 0 1-2.8.58h-4.26v9.72a1.56 1.56 0 0 1-.56 1.32 2 2 0 0 1-1.23.43 2 2 0 0 1-1.24-.43 1.56 1.56 0 0 1-.56-1.32V73.84a1.77 1.77 0 0 1 .53-1.26A1.69 1.69 0 0 1 230 72h6a6.9 6.9 0 0 1 2.8.56 7.09 7.09 0 0 1 2.23 1.55 7.18 7.18 0 0 1 1.47 2.3 7.55 7.55 0 0 1 .55 2.88zm-3.59 0a3.82 3.82 0 0 0-.94-2.63 3.15 3.15 0 0 0-2.5-1.07h-4.26V83H236a3.13 3.13 0 0 0 2.5-1.08 3.92 3.92 0 0 0 .96-2.63zM261.68 93.75a7.27 7.27 0 0 1-1.55 2.25 7 7 0 0 1-2.3 1.5 7.54 7.54 0 0 1-2.86.54h-.38a7.45 7.45 0 0 1-2.82-.54 7.2 7.2 0 0 1-2.31-1.5 7 7 0 0 1-2.15-5.1V79a6.76 6.76 0 0 1 .58-2.83 7.28 7.28 0 0 1 1.57-2.26 6.94 6.94 0 0 1 2.33-1.51 7.55 7.55 0 0 1 2.84-.54h.37a7.54 7.54 0 0 1 2.86.54 6.91 6.91 0 0 1 2.3 1.51 7.76 7.76 0 0 1 1.55 2.26 6.91 6.91 0 0 1 .57 2.83v12a7 7 0 0 1-.6 2.75zm-3-14.8a3.77 3.77 0 0 0-.28-1.44 3.59 3.59 0 0 0-.79-1.14 3.48 3.48 0 0 0-1.17-.74 4.11 4.11 0 0 0-1.46-.26h-.38a3.69 3.69 0 0 0-2.63 1 3.41 3.41 0 0 0-1.08 2.63v11.88a3.87 3.87 0 0 0 .28 1.46 3.2 3.2 0 0 0 .79 1.14 3.87 3.87 0 0 0 1.18.74 3.67 3.67 0 0 0 1.45.28h.41a3.72 3.72 0 0 0 1.46-.28 3.82 3.82 0 0 0 1.17-.74 3.2 3.2 0 0 0 .79-1.14 3.87 3.87 0 0 0 .28-1.46zM282.25 96.11a1.86 1.86 0 0 1-.45 1.19 1.6 1.6 0 0 1-1.34.56h-10a1.83 1.83 0 0 1-1.81-1.79V73.61a1.58 1.58 0 0 1 .57-1.34 1.93 1.93 0 0 1 1.24-.45 1.91 1.91 0 0 1 1.23.45 1.63 1.63 0 0 1 .55 1.34v20.7h8.26a1.63 1.63 0 0 1 1.34.56 2 2 0 0 1 .41 1.24zM302.09 96.11a1.86 1.86 0 0 1-.45 1.19 1.59 1.59 0 0 1-1.34.56h-11.36a1.71 1.71 0 0 1-1.25-.54 1.68 1.68 0 0 1-.55-1.25V73.84a1.86 1.86 0 0 1 1.8-1.8h11.36a1.62 1.62 0 0 1 1.34.56 2 2 0 0 1 .45 1.24 1.86 1.86 0 0 1-.45 1.19 1.59 1.59 0 0 1-1.34.56h-9.57v7.21h6.5a1.63 1.63 0 0 1 1.35.55 1.84 1.84 0 0 1 .45 1.21 1.91 1.91 0 0 1-.45 1.23 1.62 1.62 0 0 1-1.35.57h-6.5v8h9.57a1.62 1.62 0 0 1 1.34.56 2 2 0 0 1 .45 1.19z"/></svg>