<svg id="Calque_1" xmlns="http://www.w3.org/2000/svg" viewBox="0 0 242.399 252.859"><style>.st0{fill:#ea5931}.st1{fill:#e5007e}.st2{fill:#2d3a8b}</style><path class="st0" d="M211.637 115.919h.308c9.298-.137 16.717-3.828 22.256-11.077 3.226-4.176 5.436-9.052 6.66-14.58l-19.77-5.448c-.523 2.999-1.557 5.509-3.095 7.517-1.641 2.051-3.762 3.112-6.359 3.179-2.804-.067-5.025-1.093-6.665-3.076-2.448-2.991-3.746-7.381-3.893-13.145l-20.265-5.591a55.302 55.302 0 0 0-.252 5.813c.136 10.599 3.008 19.247 8.616 25.947 5.674 6.975 13.16 10.461 22.459 10.461z"/><path class="st1" d="M88.547 150.03h-.286c-1.751 0-3.288.536-4.61 1.251v13.973c0 .393-.322.75-.715.75h-4.324a.779.779 0 0 1-.75-.75v-19.012c0-.394.322-.715.715-.715h4.252c.393 0 .715.321.715.715v.715c1.322-1.108 3.109-1.716 4.824-1.716.393 0 .715.322.715.715v3.396c0 .32-.214.678-.536.678zm19.799 7.54h-11.4v.071c0 2.037.858 3.896 3.681 3.896 2.251 0 5.432-.179 6.861-.321h.107c.393 0 .679.179.679.571v2.716c0 .572-.143.822-.75.965-2.287.572-4.217.858-7.326.858-4.324 0-8.97-2.287-8.97-9.185v-2.502c0-5.753 3.359-9.398 9.042-9.398 5.861 0 8.827 4.003 8.827 9.398v2.073c0 .536-.286.858-.751.858zm-1.393-14.08h-3.681c-.465 0-.572-.107-.858-.429l-2.251-2.501-2.287 2.501c-.286.321-.393.429-.857.429h-3.681c-.215 0-.322-.107-.322-.25 0-.107.036-.215.143-.357l3.18-4.181c.322-.394.465-.536.965-.536h5.718c.5 0 .644.107.965.536l3.145 4.181c.107.143.143.25.143.357-.001.142-.108.25-.322.25zm-3.502 10.363c0-2.645-1.215-3.967-3.216-3.967-1.966 0-3.288 1.358-3.288 3.967v.144h6.504v-.144zm26.982-7.504l-4.503 16.224c-.894 3.181-3.073 3.753-5.182 3.753s-4.253-.572-5.146-3.753l-4.467-16.224c-.036-.071-.036-.144-.036-.215 0-.357.25-.607.572-.607h4.717c.357 0 .643.321.75.751l3.073 14.008c.107.536.286.751.536.751s.464-.215.572-.751l3.073-14.008c.107-.43.393-.751.75-.751h4.717c.321 0 .607.25.607.607a.44.44 0 0 1-.033.215zm19.12 11.221h-11.4v.071c0 2.037.858 3.896 3.681 3.896 2.251 0 5.432-.179 6.861-.321h.107c.393 0 .679.179.679.571v2.716c0 .572-.143.822-.75.965-2.287.572-4.217.858-7.326.858-4.324 0-8.97-2.287-8.97-9.185v-2.502c0-5.753 3.359-9.398 9.042-9.398 5.861 0 8.827 4.003 8.827 9.398v2.073c-.001.536-.286.858-.751.858zm-4.896-3.717c0-2.645-1.215-3.967-3.216-3.967-1.966 0-3.288 1.358-3.288 3.967v.144h6.504v-.144zm20.407-3.823h-.286c-1.751 0-3.288.536-4.61 1.251v13.973c0 .393-.322.75-.715.75h-4.324a.779.779 0 0 1-.75-.75v-19.012c0-.394.322-.715.715-.715h4.252c.393 0 .715.321.715.715v.715c1.322-1.108 3.109-1.716 4.824-1.716.393 0 .715.322.715.715v3.396c0 .32-.215.678-.536.678zM58.135 205.893c-.715 0-1.894-.107-2.93-.25v6.183a.717.717 0 0 1-.715.715h-4.324c-.393 0-.75-.322-.75-.715v-25.052c0-.571.143-.821 1.108-1.036 2.037-.5 4.86-.929 7.612-.929 5.789 0 8.97 3.359 8.97 9.148v2.787c-.001 5.611-2.931 9.149-8.971 9.149zm3.181-11.936c0-2.537-.644-4.36-3.181-4.36-1.179 0-2.251.072-2.93.179v11.15c.857.106 2.073.214 2.93.214 2.537 0 3.181-1.894 3.181-4.396v-2.787zm26.338 3.181h-11.4v.071c0 2.037.858 3.896 3.681 3.896 2.251 0 5.432-.179 6.861-.322h.107c.393 0 .679.179.679.572v2.716c0 .571-.143.821-.75.965-2.287.571-4.217.857-7.326.857-4.324 0-8.97-2.287-8.97-9.184v-2.502c0-5.754 3.359-9.398 9.042-9.398 5.861 0 8.827 4.002 8.827 9.398v2.072c0 .537-.286.859-.751.859zm-4.895-3.717c0-2.645-1.215-3.967-3.216-3.967-1.966 0-3.288 1.358-3.288 3.967v.143h6.504v-.143zm26.553 12.151h-4.324c-.393 0-.715-.357-.715-.751v-11.899c0-2.502-.464-3.324-2.645-3.324-1.036 0-2.144.501-3.359 1.144v14.08c0 .394-.322.751-.715.751H93.23a.78.78 0 0 1-.75-.751V185.81c0-.393.322-.714.715-.714h4.002c.393 0 .715.321.715.714v.858c1.965-1.394 3.538-1.858 5.825-1.858 5.182 0 6.326 3.609 6.326 8.112v11.899a.78.78 0 0 1-.751.751zm12.044.321c-1.965 0-4.681-.286-6.504-.786-.429-.107-.679-.393-.679-.822v-2.895c0-.357.25-.679.679-.679h.143c1.93.25 4.932.5 6.075.5 1.715 0 2.108-.464 2.108-1.394 0-.536-.322-.929-1.322-1.501l-4.646-2.68c-2.001-1.144-3.181-2.967-3.181-5.289 0-3.609 2.394-5.539 7.326-5.539 2.823 0 4.539.357 6.361.821.429.107.679.394.679.822v2.895c0 .429-.25.679-.607.679h-.107c-1.036-.143-4.109-.464-5.932-.464-1.394 0-1.894.214-1.894 1.036 0 .536.394.822 1.108 1.251l4.431 2.537c2.966 1.715 3.609 3.573 3.609 5.503 0 3.36-2.429 6.005-7.647 6.005zm28.197-8.755h-11.4v.071c0 2.037.858 3.896 3.681 3.896 2.251 0 5.432-.179 6.861-.322h.107c.393 0 .679.179.679.572v2.716c0 .571-.143.821-.75.965-2.287.571-4.217.857-7.326.857-4.324 0-8.97-2.287-8.97-9.184v-2.502c0-5.754 3.359-9.398 9.042-9.398 5.861 0 8.827 4.002 8.827 9.398v2.072c-.001.537-.286.859-.751.859zm-4.896-3.717c0-2.645-1.215-3.967-3.216-3.967-1.966 0-3.288 1.358-3.288 3.967v.143h6.504v-.143zm20.407-3.824h-.286c-1.751 0-3.288.536-4.61 1.251v13.973c0 .394-.322.751-.715.751h-4.324a.78.78 0 0 1-.75-.751v-19.012c0-.393.322-.714.715-.714h4.252c.393 0 .715.321.715.714v.715c1.322-1.107 3.109-1.715 4.824-1.715.393 0 .715.321.715.715v3.395c0 .321-.215.678-.536.678zm-48.426 55.542h-4.002a.717.717 0 0 1-.714-.715v-.572c-1.394 1.001-2.823 1.608-4.967 1.608-3.109 0-6.111-1.501-6.111-6.146v-.321c0-4.182 2.681-6.04 8.792-6.04h1.93v-1.286c0-2.037-1-2.466-2.68-2.466-2.287 0-4.825.143-5.932.25h-.179c-.357 0-.644-.179-.644-.644v-2.895c0-.393.25-.679.679-.786 1.322-.321 3.824-.75 6.182-.75 5.146 0 8.362 2.072 8.362 7.29v12.758a.72.72 0 0 1-.716.715zm-4.968-8.756h-2.037c-2.501 0-3.145.858-3.145 2.609v.321c0 1.501.75 1.787 2.251 1.787 1.072 0 2.073-.357 2.93-.786l.001-3.931zm28.126-7.969l-1.108.357c.429.644.786 1.787.786 2.645v.286c0 4.646-3.252 6.683-8.827 6.683-1.68 0-3.002-.251-3.717-.536-.393.25-.5.5-.5.821 0 .572.214.822 1.072 1.001l4.039.894c6.218 1.357 8.362 2.322 8.362 5.753v.286c0 3.931-3.073 5.825-9.363 5.825-5.932 0-9.077-2.073-9.077-5.825v-.286c0-1.465.607-2.823 2.144-4.002-1.287-.715-1.823-2.145-1.823-3.323 0-1.322.679-2.323 1.573-3.038-1.144-1-1.644-2.823-1.644-4.252v-.286c0-4.038 2.68-6.754 8.934-6.754h8.898c.5 0 .893.429.893.929v2.037c.002.499-.213.643-.642.785zm-5.789 17.904c0-.679-.464-1.144-3.681-1.858l-2.645-.571c-.429.607-.714 1.18-.714 2.43v.286c0 1.215.822 1.822 3.573 1.822 2.931 0 3.466-.75 3.466-1.822l.001-.287zm-.178-14.902c0-1.466-.644-2.573-3.181-2.573s-3.252 1.107-3.252 2.573v.286c0 1.215.536 2.501 3.252 2.501 2.501 0 3.181-.965 3.181-2.501v-.286zm15.224-9.077h-4.646a.717.717 0 0 1-.715-.715v-3.323c0-.394.322-.715.715-.715h4.646c.393 0 .715.321.715.715v3.323a.717.717 0 0 1-.715.715zm-.143 22.8h-4.36a.717.717 0 0 1-.715-.715v-19.048c0-.393.322-.714.715-.714h4.36c.393 0 .714.321.714.714v19.048a.717.717 0 0 1-.714.715zm16.153-15.975h-.286c-1.751 0-3.288.536-4.61 1.251v13.973c0 .394-.322.751-.715.751h-4.324a.78.78 0 0 1-.75-.751v-19.012c0-.393.322-.714.715-.714h4.252c.393 0 .715.321.715.714v.715c1.322-1.107 3.109-1.715 4.824-1.715.393 0 .715.321.715.715v3.395c0 .321-.214.678-.536.678zM23.659 1.87l-1.328 7.427h1.622c1.033 0 1.475.738 1.475 2.459v.492c0 1.721-.442 2.46-1.475 2.46h-2.607l-1.031 5.409h2.064c1.033 0 1.477.738 1.477 2.46v.491c0 1.721-.444 2.46-1.477 2.46H19.33l-1.426 7.574c-.197 1.033-1.08 1.525-2.703 1.525h-.641c-1.573 0-2.261-.295-2.261-1.131 0-.295.196-1.033 1.477-7.968H9.148l-1.426 7.574c-.197 1.033-1.083 1.525-2.707 1.525h-.637c-1.575 0-2.261-.295-2.261-1.131 0-.295.196-1.033 1.473-7.968H1.475C.442 25.528 0 24.789 0 23.068v-.491c0-1.721.442-2.46 1.475-2.46h3.1l1.031-5.409H3.247c-1.033 0-1.477-.739-1.477-2.46v-.492c0-1.721.444-2.459 1.477-2.459h3.345L7.87 2.312C8.067 1.28 9.002.787 10.624.787h.641c1.524 0 2.214.394 2.214 1.083L12.15 9.297h4.622l1.279-6.985C18.248 1.28 19.182.787 20.805.787h.64c1.524-.001 2.214.393 2.214 1.083zM11.165 14.708l-1.031 5.409h4.622l1.031-5.409h-4.622zm41.408-5.904c0 3.345-2.359 6.246-5.311 7.477l.047.196c3.935.787 6.642 4.28 6.642 8.067 0 6.345-3.986 9.985-12.299 9.985H31.227c-1.377 0-1.969-.591-1.969-1.968V2.066c0-1.377.592-1.968 1.969-1.968h9.739c8.313.001 11.607 3.543 11.607 8.706zm-15.74-2.311v7.328h3.394c2.952 0 4.573-1.623 4.573-3.688 0-2.411-1.473-3.64-4.475-3.64h-3.492zm0 13.772v7.82h4.82c2.855 0 4.526-1.426 4.526-3.984s-1.919-3.837-5.311-3.837l-4.035.001zM93.095 1.574v31.479c0 1.033-.886 1.574-2.952 1.574h-1.426c-2.067 0-2.952-.541-2.952-1.574V12.69l-.196-.049-7.132 12.739c-.444.589-1.034.934-1.969.934h-1.426c-.935 0-1.524-.345-1.966-.934l-7.132-12.739-.197.049v20.363c0 1.033-.886 1.574-2.95 1.574h-1.429c-2.066 0-2.952-.541-2.952-1.574V1.574C58.417.542 59.303 0 61.369 0h2.607c1.426 0 2.557.345 3.1 1.328l8.262 14.707.393.688.442-.835 8.313-14.559C85.027.345 86.16 0 87.586 0h2.557c2.066 0 2.952.542 2.952 1.574z"/><path class="st2" d="M173.372 81.203c-2.068-5.064-5.869-8.608-11.378-10.653l-12.837 14.903c.211.019.428.036.626.057 1.297.137 2.257.342 2.87.615 2.325 1.025 3.078 2.735 2.258 5.128-.821 2.394-2.498 3.692-5.025 3.897-2.368.232-4.242-1.116-5.633-4.004L133.51 103.62l-2.919 3.389c.179.189.346.385.53.572.591.6 1.206 1.175 1.844 1.724 4.853 4.171 10.322 6.256 16.408 6.256 6.63-.411 12.271-2.631 16.922-6.666 4.65-4.033 7.418-9.195 8.308-15.487.615-4.308.204-8.375-1.231-12.205zm-2.93-38.767l-12.32 20.408h12.994V42.436h-.674z"/><path class="st0" d="M154.582 68.709c-3.587-.484-7.271-.43-11.055.187.067-.683.205-2.7.409-6.051h14.185l12.318-20.408h-43.425l-.993 15.398-1.468 22.754 3.487 4.718c1.297 0 3.129-.016 5.487-.051 2.358-.033 4.393-.051 6.102-.051 1.579 0 3.241.017 4.97.046l.416.006c1.592.03 2.965.098 4.142.2l12.837-14.903c-.143-.053-.273-.117-.417-.167a34.97 34.97 0 0 0-6.995-1.678zm-11.054 20.699l-1.66.368-18.237 4.042c1.128 5.075 3.46 9.465 6.96 13.191l2.919-3.389 10.744-12.473c-.257-.533-.503-1.1-.726-1.739z"/><path class="st1" d="M201.075 79.203c-.14-5.743 1.024-10.221 3.487-13.435 1.641-2.051 3.76-3.111 6.358-3.18 2.872.139 5.094 1.164 6.667 3.077 2.461 3.009 3.76 7.419 3.898 13.23.051 2.152-.081 4.127-.395 5.924l19.77 5.454c.799-3.611 1.189-7.498 1.137-11.686-.138-10.597-3.01-19.246-8.615-25.947-5.676-6.905-13.164-10.426-22.461-10.564h-.204c-9.367.204-16.819 3.933-22.358 11.179-4.323 5.598-6.817 12.429-7.545 20.451l20.268 5.591-.007-.094z"/><path d="M94.781 65.666c-1.573-1.913-3.795-2.939-6.667-3.077-2.599.069-4.718 1.129-6.359 3.18-2.461 3.214-3.624 7.692-3.486 13.435.086 3.659.634 6.761 1.641 9.309.593 1.499 1.343 2.807 2.255 3.921 1.641 1.984 3.861 3.009 6.667 3.076 2.598-.067 4.718-1.128 6.359-3.179.051-.066.092-.14.141-.207 2.358-3.198 3.479-7.602 3.344-13.228-.135-5.811-1.434-10.221-3.895-13.23z" fill="none"/><path class="st0" d="M88.832 115.919h.307c9.298-.137 16.717-3.828 22.255-11.077 1.855-2.402 3.359-5.042 4.551-7.892l-20.614-4.827c-.049.067-.09.141-.141.207-1.641 2.051-3.761 3.112-6.359 3.179-2.805-.067-5.025-1.093-6.667-3.076-.912-1.114-1.662-2.422-2.255-3.921l-21.976-5.147c.714 8.86 3.525 16.224 8.436 22.092 5.676 6.976 13.164 10.462 22.463 10.462z"/><path class="st2" d="M110.575 52.641c-5.677-6.905-13.164-10.426-22.461-10.564h-.204c-4.041.088-7.704.873-11.032 2.272l34.662 9.563c-.323-.423-.622-.862-.965-1.271z"/><path class="st1" d="M78.269 79.203c-.138-5.743 1.024-10.221 3.486-13.435 1.641-2.051 3.76-3.111 6.359-3.18 2.872.139 5.094 1.164 6.667 3.077 2.461 3.009 3.76 7.419 3.896 13.23.135 5.625-.986 10.03-3.344 13.228l20.614 4.827c2.236-5.34 3.332-11.452 3.243-18.363-.128-9.95-2.701-18.16-7.65-24.676l-34.662-9.563c-4.386 1.844-8.176 4.786-11.326 8.906-5.333 6.907-7.932 15.658-7.794 26.255.016 1.315.076 2.6.178 3.855l21.976 5.147c-1.008-2.547-1.557-5.648-1.643-9.308zM11.447 92.155c-3.384 2.531-5.726 4.256-7.025 5.179-1.029.73-2.054 1.465-3.076 2.205v15.999h49.741v-5.282l-32.889-23.3a275.67 275.67 0 0 1-6.751 5.199z"/><path class="st2" d="M51.907 61.899c-1.505-5.4-4.307-9.879-8.409-13.434s-8.82-5.539-14.153-5.949c-6.359-.411-12.222 1.351-17.59 5.281C6.387 51.73 2.643 56.635.524 62.515c1.914.685 4.786 1.727 8.616 3.128 3.828 1.403 6.7 2.479 8.616 3.23 1.024-3.076 2.938-4.974 5.742-5.692s5.195-.153 7.179 1.693 2.529 4.343 1.641 7.487c-.409 1.368-1.811 3.282-4.204 5.744a91.541 91.541 0 0 1-7.59 6.973c-.745.611-1.525 1.24-2.326 1.878l32.889 23.3V95.744H31.703c16.476-10.733 23.212-22.015 20.204-33.845z"/></svg>